<?xml version="1.0" standalone="no"?>
<!DOCTYPE svg PUBLIC "-//W3C//DTD SVG 20010904//EN"
 "http://www.w3.org/TR/2001/REC-SVG-20010904/DTD/svg10.dtd">
<svg version="1.0" xmlns="http://www.w3.org/2000/svg"
 width="385.000000pt" height="385.000000pt" viewBox="0 0 385.000000 385.000000"
 preserveAspectRatio="xMidYMid meet">
<metadata>
Created by potrace 1.11, written by Peter Selinger 2001-2013
</metadata>
<g transform="translate(0.000000,385.000000) scale(0.100000,-0.100000)"
fill="#000000" stroke="none">
<path d="M10 1930 l0 -1920 1920 0 1920 0 0 1920 0 1920 -1920 0 -1920 0 0
-1920z m3103 156 c79 -23 138 -51 185 -88 42 -34 142 -152 142 -169 0 -5 -62
-50 -137 -100 -119 -79 -138 -88 -146 -73 -18 32 -81 95 -110 110 -91 48 -210
29 -260 -40 -34 -47 -31 -141 5 -188 27 -36 124 -91 248 -143 303 -126 447
-252 495 -433 21 -83 19 -217 -6 -297 -72 -233 -281 -356 -597 -350 -264 5
-458 99 -591 290 -23 32 -41 63 -41 69 0 6 65 48 143 93 l142 82 20 -27 c89
-119 182 -177 296 -188 178 -17 301 69 286 198 -11 89 -62 129 -287 228 -171
75 -217 99 -288 152 -134 99 -199 223 -206 389 -10 256 137 439 399 494 77 16
238 11 308 -9z m-1013 -655 c-1 -684 -4 -738 -45 -836 -51 -119 -149 -207
-280 -251 -65 -22 -102 -27 -195 -30 -190 -4 -324 44 -439 156 -50 50 -130
166 -120 174 2 1 68 41 147 88 l142 86 39 -56 c48 -70 76 -97 121 -115 39 -16
130 -15 172 1 38 15 77 71 87 125 5 26 9 318 9 650 0 331 1 616 1 633 l1 31
180 1 180 0 0 -657z"/>
</g>
</svg>
